<svg xmlns="http://www.w3.org/2000/svg" width="24" height="24" viewBox="0 0 24 24" fill="none" stroke="#fff" stroke-width="1.75" stroke-linecap="round" stroke-linejoin="round"><circle cx="12" cy="12" r="5.4"/><path d="M 17.40 12.00 L 19.90 12.00 M 15.82 15.82 L 17.59 17.59 M 12.00 17.40 L 12.00 19.90 M 8.18 15.82 L 6.41 17.59 M 6.60 12.00 L 4.10 12.00 M 8.18 8.18 L 6.41 6.41 M 12.00 6.60 L 12.00 4.10 M 15.82 8.18 L 17.59 6.41"/><circle cx="20.9" cy="12.0" r="1.15" fill="#fff" stroke="none"/><circle cx="18.29" cy="18.29" r="1.15" fill="#fff" stroke="none"/><circle cx="12.0" cy="20.9" r="1.15" fill="#fff" stroke="none"/><circle cx="5.71" cy="18.29" r="1.15" fill="#fff" stroke="none"/><circle cx="3.1" cy="12.0" r="1.15" fill="#fff" stroke="none"/><circle cx="5.71" cy="5.71" r="1.15" fill="#fff" stroke="none"/><circle cx="12.0" cy="3.1" r="1.15" fill="#fff" stroke="none"/><circle cx="18.29" cy="5.71" r="1.15" fill="#fff" stroke="none"/><circle cx="10.3" cy="11" r="0.9" fill="#fff" stroke="none"/><circle cx="13.5" cy="13.2" r="0.9" fill="#fff" stroke="none"/></svg>
